<svg width="41" height="40" viewBox="0 0 41 40" fill="none" xmlns="http://www.w3.org/2000/svg">
<rect x="0.5" width="40" height="40" rx="20" fill="#0F5DA9" fill-opacity="0.1"/>
<path d="M30.298 21.885L29.847 21.625C29.949 21.081 30 20.537 30 20C30 19.463 29.949 18.918 29.847 18.375L30.298 18.115C31.734 17.289 32.229 15.455 31.403 14.019C30.577 12.582 28.744 12.087 27.307 12.913L26.857 13.172C26.016 12.451 25.047 11.892 24 11.523V11.001C24 9.34398 22.657 8.00098 21 8.00098C19.343 8.00098 18 9.34398 18 11.001V11.523C16.953 11.893 15.984 12.452 15.143 13.172L14.693 12.913C13.257 12.087 11.423 12.582 10.597 14.018C9.77098 15.455 10.266 17.289 11.702 18.115L12.153 18.374C12.051 18.918 12 19.462 12 19.999C12 20.536 12.051 21.081 12.153 21.624L11.702 21.883C10.266 22.709 9.77098 24.543 10.597 25.979C11.423 27.416 13.257 27.911 14.693 27.085L15.143 26.826C15.984 27.547 16.953 28.106 18 28.475V28.997C18 30.654 19.343 31.997 21 31.997C22.657 31.997 24 30.654 24 28.997V28.475C25.047 28.105 26.016 27.546 26.857 26.826L27.307 27.085C28.743 27.911 30.577 27.416 31.403 25.979C32.229 24.542 31.734 22.709 30.298 21.883V21.885ZM21 15C22.381 15 23.5 16.119 23.5 17.5C23.5 18.881 22.381 20 21 20C19.619 20 18.5 18.881 18.5 17.5C18.5 16.119 19.619 15 21 15ZM21 25C19.559 25 18.28 24.371 17.373 23.391C17.99 21.989 19.368 21 21 21C22.632 21 24.01 21.989 24.628 23.392C23.721 24.372 22.441 25 21 25Z" fill="#0F5DA9"/>
</svg>
