<svg width="40" height="40" viewBox="0 0 40 40" fill="none" xmlns="http://www.w3.org/2000/svg">
<rect width="40" height="40" rx="20" fill="#0F5DA9" fill-opacity="0.1"/>
<g clip-path="url(#clip0_14_2825)">
<path d="M27.9383 16.9034L21.6142 10.7326C21.065 10.1826 20.275 9.91339 19.5075 10.0234L13.7675 10.8084C13.3117 10.8709 12.9925 11.2909 13.055 11.7467C13.1175 12.2026 13.5367 12.5209 13.9942 12.4592L19.735 11.6742C19.99 11.6392 20.2533 11.7267 20.4442 11.9176L26.7692 18.0884C27.64 18.9592 27.725 20.3217 27.0383 21.2942C26.8433 20.9051 26.6025 20.5342 26.2792 20.2109L20.05 14.0342C19.5017 13.4859 18.7192 13.2217 17.9433 13.3251L12.2025 14.1101C11.8242 14.1617 11.5292 14.4642 11.4875 14.8442L10.85 20.6076C10.7667 21.3667 11.0283 22.1109 11.57 22.6517L17.75 28.7792C18.5367 29.5667 19.5825 29.9992 20.695 29.9992H20.7092C21.8275 29.9959 22.8758 29.5559 23.6617 28.7601L26.3008 26.0867C27.0733 25.3042 27.4617 24.2876 27.4867 23.2634L27.9675 22.7834C29.5717 21.1584 29.5625 18.5234 27.9408 16.9026L27.9383 16.9034ZM15 18.3334C14.54 18.3334 14.1667 17.9601 14.1667 17.5001C14.1717 16.4101 15.8283 16.4109 15.8333 17.5001C15.8333 17.9601 15.46 18.3334 15 18.3334Z" fill="#0F5DA9"/>
</g>
<defs>
<clipPath id="clip0_14_2825">
<rect width="20" height="20" fill="white" transform="translate(10 10)"/>
</clipPath>
</defs>
</svg>
