<svg width="40" height="40" viewBox="0 0 40 40" fill="none" xmlns="http://www.w3.org/2000/svg">
<rect width="40" height="40" rx="20" fill="#0F5DA9" fill-opacity="0.1"/>
<g clip-path="url(#clip0_14_2818)">
<path d="M16.6667 20C13.9092 20 11.6667 17.7575 11.6667 15C11.6667 12.2425 13.9092 10 16.6667 10C19.4242 10 21.6667 12.2425 21.6667 15C21.6667 17.7575 19.4242 20 16.6667 20ZM22.2867 30C22.1108 30 21.935 29.9442 21.7867 29.8333C21.5033 29.6217 21.3858 29.2533 21.4917 28.9158L22.2758 26.4025L20.295 24.7908C20.0283 24.565 19.9308 24.1967 20.0517 23.8683C20.1725 23.54 20.4842 23.3225 20.8333 23.3225H23.3342L24.2192 20.8392C24.3408 20.5133 24.6525 20.2967 25 20.2967C25.3475 20.2967 25.6592 20.5133 25.7808 20.8392L26.6658 23.3225H29.1667C29.5167 23.3225 29.8292 23.5417 29.9492 23.87C30.0692 24.1983 29.9708 24.5675 29.7033 24.7933L27.7317 26.3992L28.5475 28.8825C28.6592 29.2183 28.5458 29.5883 28.265 29.8042C27.9842 30.02 27.5975 30.035 27.3017 29.8425L25.0067 28.3483L22.75 29.8583C22.61 29.9525 22.4483 30 22.2867 30ZM18.2808 30H10.8333C10.3733 30 10 29.6267 10 29.1667C10 25.0317 13.365 21.6667 17.5 21.6667H18.2808C18.5692 21.6667 18.8367 21.8167 18.9892 22.0617C19.1408 22.3067 19.155 22.6133 19.0267 22.8708C18.5667 23.7958 18.3333 24.7933 18.3333 25.8333C18.3333 26.8733 18.5667 27.87 19.0267 28.7958C19.155 29.0542 19.1408 29.3608 18.9892 29.6058C18.8375 29.8508 18.5692 30 18.2808 30Z" fill="#0F5DA9"/>
</g>
<defs>
<clipPath id="clip0_14_2818">
<rect width="20" height="20" fill="white" transform="translate(10 10)"/>
</clipPath>
</defs>
</svg>
