<svg width="41" height="40" viewBox="0 0 41 40" fill="none" xmlns="http://www.w3.org/2000/svg">
<rect x="0.5" width="40" height="40" rx="20" fill="#0F5DA9" fill-opacity="0.1"/>
<g clip-path="url(#clip0_15_3038)">
<path d="M21 25V23.75C21 22.6008 21.9342 21.6667 23.0833 21.6667H23.5V21.25C23.5 20.5608 24.0608 20 24.75 20H27.25C27.9392 20 28.5 20.5608 28.5 21.25V21.6667H28.9167C30.0658 21.6667 31 22.6008 31 23.75V25H21ZM26.8333 26.6667V27.5H25.1667V26.6667H21V30H31V26.6667H26.8333ZM19.3333 30H11V12.5C11 11.1217 12.1217 10 13.5 10H21.8333C23.2117 10 24.3333 11.1217 24.3333 12.5V18.365C23.2983 18.5142 22.4367 19.2058 22.0508 20.145C20.4833 20.5942 19.3333 22.04 19.3333 23.75V30ZM18.5 15.8333H21V14.1667H18.5V15.8333ZM18.5 19.1667H21V17.5H18.5V19.1667ZM16.8333 24.1667H14.3333V25.8333H16.8333V24.1667ZM16.8333 20.8333H14.3333V22.5H16.8333V20.8333ZM16.8333 17.5H14.3333V19.1667H16.8333V17.5ZM16.8333 14.1667H14.3333V15.8333H16.8333V14.1667Z" fill="#0F5DA9"/>
</g>
<defs>
<clipPath id="clip0_15_3038">
<rect width="20" height="20" fill="white" transform="translate(11 10)"/>
</clipPath>
</defs>
</svg>
