<svg width="29" height="28" viewBox="0 0 29 28" fill="none" xmlns="http://www.w3.org/2000/svg">
<path d="M10.039 23.501C19.096 23.501 24.0505 15.9965 24.0505 9.50004C24.0505 9.29004 24.0505 9.07704 24.0415 8.86704C25.0061 8.16877 25.8386 7.30427 26.5 6.31404C25.599 6.71132 24.6441 6.97315 23.6665 7.09104C24.6963 6.4755 25.4676 5.50699 25.837 4.36554C24.8695 4.93873 23.8105 5.3411 22.7065 5.55504C21.9643 4.76458 20.9821 4.24092 19.9121 4.06518C18.8421 3.88944 17.7441 4.07142 16.788 4.58295C15.8319 5.09447 15.0712 5.90698 14.6237 6.89463C14.1761 7.88228 14.0668 8.98994 14.3125 10.046C12.3546 9.94787 10.4392 9.43924 8.69056 8.55315C6.9419 7.66707 5.39903 6.42331 4.162 4.90254C3.53401 5.98716 3.34236 7.27014 3.62597 8.49094C3.90958 9.71174 4.64718 10.7788 5.689 11.4755C4.90831 11.449 4.14478 11.2394 3.46 10.8635V10.931C3.46135 12.0673 3.85496 13.1682 4.57431 14.0477C5.29366 14.9272 6.29462 15.5314 7.408 15.758C6.98539 15.8745 6.54884 15.9325 6.1105 15.9305C5.80148 15.9315 5.49307 15.9028 5.1895 15.845C5.50418 16.8231 6.11691 17.6783 6.94187 18.2908C7.76683 18.9032 8.7627 19.2423 9.79 19.2605C8.04483 20.6312 5.8891 21.3746 3.67 21.371C3.27898 21.3727 2.88823 21.3501 2.5 21.3035C4.75227 22.7394 7.36795 23.5019 10.039 23.501Z" fill="#0F5DA9"/>
</svg>
