<svg width="29" height="28" viewBox="0 0 29 28" fill="none" xmlns="http://www.w3.org/2000/svg">
<path d="M12.1667 17.5002L18.2217 14.0002L12.1667 10.5002V17.5002ZM25.6534 8.36516C25.805 8.9135 25.91 9.6485 25.98 10.5818C26.0617 11.5152 26.0967 12.3202 26.0967 13.0202L26.1667 14.0002C26.1667 16.5552 25.98 18.4335 25.6534 19.6352C25.3617 20.6852 24.685 21.3618 23.635 21.6535C23.0867 21.8052 22.0834 21.9102 20.5434 21.9802C19.0267 22.0618 17.6384 22.0968 16.355 22.0968L14.5 22.1668C9.61171 22.1668 6.56671 21.9802 5.36504 21.6535C4.31504 21.3618 3.63837 20.6852 3.34671 19.6352C3.19504 19.0868 3.09004 18.3518 3.02004 17.4185C2.93837 16.4852 2.90337 15.6802 2.90337 14.9802L2.83337 14.0002C2.83337 11.4452 3.02004 9.56683 3.34671 8.36516C3.63837 7.31516 4.31504 6.6385 5.36504 6.34683C5.91337 6.19516 6.91671 6.09016 8.45671 6.02016C9.97337 5.9385 11.3617 5.9035 12.645 5.9035L14.5 5.8335C19.3884 5.8335 22.4334 6.02016 23.635 6.34683C24.685 6.6385 25.3617 7.31516 25.6534 8.36516Z" fill="#0F5DA9"/>
</svg>
